<?xml version="1.0" encoding="utf-8"?>
<!-- Generator: Adobe Illustrator 18.1.0, SVG Export Plug-In . SVG Version: 6.00 Build 0)  -->
<!DOCTYPE svg PUBLIC "-//W3C//DTD SVG 1.1//EN" "http://www.w3.org/Graphics/SVG/1.1/DTD/svg11.dtd">
<svg version="1.1" id="Layer_1" xmlns="http://www.w3.org/2000/svg" xmlns:xlink="http://www.w3.org/1999/xlink" x="0px" y="0px"
	 viewBox="0 0 920 920" enable-background="new 0 0 920 920" xml:space="preserve">
<g>
	<g>
		<path fill="#FFFFFF" d="M781.6,214.6c2.1,0,4.1,0.8,5.6,2.3c3.1,3.1,3.1,8.2,0,11.3c-1.5,1.5-3.5,2.3-5.6,2.3
			c-0.9,0-1.8-0.1-2.6-0.4l-3.7-1.3l-1.3-3.7c-1-2.9-0.2-6,1.9-8.2C777.5,215.5,779.5,214.6,781.6,214.6 M346.1,801.9l3.5,1.7
			c2.7,1.4,4.4,4.1,4.4,7.1c0,4.4-3.6,8-8,8c-4.4,0-8-3.6-8-8c0-3,1.7-5.8,4.4-7.1L346.1,801.9 M781.6,202.2c-5.2,0-10.4,2-14.4,6
			c-5.7,5.7-7.3,13.8-4.9,21L614.2,377.3H420.8L337,461v331.5c-6.7,3.3-11.4,10.3-11.4,18.3c0,11.3,9.1,20.4,20.4,20.4
			c11.3,0,20.4-9.1,20.4-20.4c0-8-4.6-14.9-11.4-18.3v-324l73.1-73.1h193.4l153.4-153.4c2.1,0.7,4.3,1.1,6.6,1.1
			c5.2,0,10.4-2,14.4-6c8-8,8-20.9,0-28.9C792.1,204.2,786.8,202.2,781.6,202.2L781.6,202.2z"/>
		<path fill="#FFFFFF" d="M577.2,50.4c-11.3,0-20.4,9.1-20.4,20.4c0,8,4.6,14.9,11.4,18.3v161.1L510.2,306h-120L280.9,415.4v245.5
			c3.1-0.1,6-0.4,9.2-0.4c3.1,0,5.9,0.4,8.9,0.4v-238l98.8-98.8h119.8l68.7-66.3V89.1c6.7-3.3,11.4-10.3,11.4-18.3
			C597.6,59.5,588.5,50.4,577.2,50.4z"/>
		<path fill="#FFFFFF" d="M577.2,62.8c4.4,0,8,3.6,8,8c0,3-1.7,5.8-4.4,7.1l-3.5,1.7l-3.5-1.7c-2.7-1.4-4.4-4.1-4.4-7.1
			C569.2,66.4,572.8,62.8,577.2,62.8"/>
		<path fill="#FFFFFF" d="M80.4,260.5c2.1,0,4.1,0.8,5.6,2.3c2.1,2.1,2.9,5.3,1.9,8.2l-1.3,3.7l-3.7,1.3c-0.8,0.3-1.7,0.4-2.6,0.4
			c-2.1,0-4.1-0.8-5.6-2.3c-1.5-1.5-2.3-3.5-2.3-5.6s0.8-4.1,2.3-5.6C76.3,261.3,78.3,260.5,80.4,260.5 M232.2,777.8l3.5,1.7
			c2.7,1.4,4.4,4.1,4.4,7.1c0,4.4-3.6,8-8,8s-8-3.6-8-8c0-3,1.7-5.8,4.4-7.1L232.2,777.8 M80.4,248c-5.2,0-10.4,2-14.4,6
			c-8,8-8,20.9,0,28.9c4,4,9.2,6,14.4,6c2.2,0,4.4-0.4,6.6-1.1l70.7,70.7v122.1l65.6,65.6v222.2c-6.7,3.3-11.4,10.3-11.4,18.3
			c0,11.3,9.1,20.4,20.4,20.4c11.3,0,20.4-9.1,20.4-20.4c0-8-4.6-14.9-11.4-18.3V538.6L175.7,473V350.9l-76-76
			c2.4-7.1,0.8-15.3-4.9-21C90.9,250,85.6,248,80.4,248L80.4,248z"/>
		<path fill="#FFFFFF" d="M703,117.9c2.1,0,4.1,0.8,5.6,2.3c3.1,3.1,3.1,8.2,0,11.3c-1.5,1.5-3.5,2.3-5.6,2.3
			c-0.9,0-1.8-0.1-2.6-0.4l-3.7-1.3l-1.3-3.7c-1-2.9-0.2-6,1.9-8.2C698.9,118.8,700.9,117.9,703,117.9 M589.3,313
			c0.9,0,1.8,0.1,2.6,0.4l3.7,1.3l1.3,3.7c1,2.9,0.2,6-1.9,8.2c-1.5,1.5-3.5,2.3-5.6,2.3c-2.1,0-4.1-0.8-5.6-2.3
			c-1.5-1.5-2.3-3.5-2.3-5.6c0-2.1,0.8-4.1,2.3-5.6C585.2,313.9,587.2,313,589.3,313 M703,105.5c-5.2,0-10.4,2-14.4,6
			c-5.7,5.7-7.3,13.8-4.9,21l-36.4,36.4v81.4l-51.4,51.4c-2.1-0.7-4.3-1.1-6.6-1.1c-5.2,0-10.4,2-14.4,6c-8,8-8,20.9,0,28.9
			c4,4,9.2,6,14.4,6c5.2,0,10.4-2,14.4-6c5.7-5.7,7.3-13.8,4.9-21l56.7-56.7v-81.4l31.1-31.1c2.1,0.7,4.3,1.1,6.6,1.1
			c5.2,0,10.4-2,14.4-6c8-8,8-20.9,0-28.9C713.5,107.5,708.2,105.5,703,105.5L703,105.5z"/>
		<path fill="#FFFFFF" d="M839.6,286.8c4.4,0,8,3.6,8,8c0,3-1.7,5.8-4.4,7.1l-3.5,1.7l-3.5-1.7c-2.7-1.4-4.4-4.1-4.4-7.1
			C831.6,290.4,835.2,286.8,839.6,286.8 M772.6,435.2c0.9,0,1.8,0.1,2.6,0.4l3.7,1.3l1.3,3.7c1,2.9,0.2,6-1.9,8.2
			c-1.5,1.5-3.5,2.3-5.6,2.3c-2.1,0-4.1-0.8-5.6-2.3c-3.1-3.1-3.1-8.2,0-11.3C768.4,436,770.4,435.2,772.6,435.2 M839.6,274.3
			c-11.3,0-20.4,9.1-20.4,20.4c0,8,4.6,14.9,11.4,18.3v59.4l-51.4,51.4c-2.1-0.7-4.3-1.1-6.6-1.1c-5.2,0-10.4,2-14.4,6
			c-8,8-8,20.9,0,28.9c4,4,9.2,6,14.4,6c5.2,0,10.4-2,14.4-6c5.7-5.7,7.3-13.8,4.9-21l56.7-56.7V313c6.7-3.3,11.4-10.3,11.4-18.3
			C860,283.5,850.9,274.3,839.6,274.3L839.6,274.3z"/>
		<path fill="#FFFFFF" d="M188.1,103.6c4.4,0,8,3.6,8,8c0,3-1.7,5.8-4.4,7.1l-3.5,1.7l-3.5-1.7c-2.7-1.4-4.4-4.1-4.4-7.1
			C180.2,107.1,183.7,103.6,188.1,103.6 M228.8,448.6l3.5,1.7c2.7,1.4,4.4,4.1,4.4,7.1c0,4.4-3.6,8-8,8s-8-3.6-8-8
			c0-3,1.7-5.8,4.4-7.1L228.8,448.6 M188.1,91.1c-11.3,0-20.4,9.1-20.4,20.4c0,8,4.6,14.9,11.4,18.3V217l40.7,40.7v181.5
			c-6.7,3.3-11.4,10.3-11.4,18.3c0,11.3,9.1,20.4,20.4,20.4c11.3,0,20.4-9.1,20.4-20.4c0-8-4.6-14.9-11.4-18.3v-189l-40.7-40.7
			v-79.7c6.7-3.3,11.4-10.3,11.4-18.3C208.5,100.3,199.4,91.1,188.1,91.1L188.1,91.1z"/>
		<path fill="#FFFFFF" d="M106.7,164.6c4.4,0,8,3.6,8,8c0,3-1.7,5.8-4.4,7.1l-3.5,1.7l-3.5-1.7c-2.7-1.4-4.4-4.1-4.4-7.1
			C98.7,168.2,102.3,164.6,106.7,164.6 M153.4,252c2.1,0,4.1,0.8,5.6,2.3c3.1,3.1,3.1,8.2,0,11.3c-1.5,1.5-3.5,2.3-5.6,2.3
			s-4.1-0.8-5.6-2.3c-2.1-2.1-2.9-5.3-1.9-8.2l1.3-3.7l3.7-1.3C151.6,252.1,152.5,252,153.4,252 M106.7,152.2
			c-11.3,0-20.4,9.1-20.4,20.4c0,8,4.6,14.9,11.4,18.3V217l36.4,36.4c-2.4,7.1-0.8,15.3,4.9,21c4,4,9.2,6,14.4,6
			c5.2,0,10.4-2,14.4-6c8-8,8-20.9,0-28.9c-4-4-9.2-6-14.4-6c-2.2,0-4.4,0.4-6.6,1.1l-31.1-31.1v-18.6c6.7-3.3,11.4-10.3,11.4-18.3
			C127.1,161.3,118,152.2,106.7,152.2L106.7,152.2z"/>
		<path fill="#FFFFFF" d="M269.6,62.8c4.4,0,8,3.6,8,8c0,3-1.7,5.8-4.4,7.1l-3.5,1.7l-3.5-1.7c-2.7-1.4-4.4-4.1-4.4-7.1
			C261.6,66.4,265.2,62.8,269.6,62.8 M473.1,225.7c4.4,0,8,3.6,8,8s-3.6,8-8,8c-3,0-5.8-1.7-7.1-4.4l-1.7-3.5l1.7-3.5
			C467.3,227.4,470,225.7,473.1,225.7 M269.6,50.4c-11.3,0-20.4,9.1-20.4,20.4c0,8,4.6,14.9,11.4,18.3v46.5l107.1,107.1h87.2
			c3.3,6.7,10.3,11.4,18.3,11.4c11.3,0,20.4-9.1,20.4-20.4c0-11.3-9.1-20.4-20.4-20.4c-8,0-14.9,4.6-18.3,11.4h-79.7l-96.5-96.5v-39
			c6.7-3.3,11.4-10.3,11.4-18.3C290,59.5,280.8,50.4,269.6,50.4L269.6,50.4z"/>
		<path fill="#FFFFFF" d="M418,16.1c2.1,0,4.1,0.8,5.6,2.3c1.5,1.5,2.3,3.5,2.3,5.6s-0.8,4.1-2.3,5.6c-1.5,1.5-3.5,2.3-5.6,2.3
			c-0.9,0-1.8-0.1-2.6-0.4l-3.7-1.3l-1.3-3.7c-1-2.9-0.2-6,1.9-8.2C413.9,17,415.9,16.1,418,16.1 M493.4,144.2c4.4,0,8,3.6,8,8
			c0,4.4-3.6,8-8,8c-3,0-5.8-1.7-7.1-4.4l-1.7-3.5l1.7-3.5C487.7,145.9,490.4,144.2,493.4,144.2 M418,3.7c-5.2,0-10.4,2-14.4,6
			c-5.7,5.7-7.3,13.8-4.9,21l-60.5,60.5l70.1,70.1h66.9c3.3,6.7,10.3,11.4,18.3,11.4c11.3,0,20.4-9.1,20.4-20.4
			c0-11.3-9.1-20.4-20.4-20.4c-8,0-14.9,4.6-18.3,11.4h-59.4l-52-52l47.7-47.7c2.1,0.7,4.3,1.1,6.6,1.1c5.2,0,10.4-2,14.4-6
			c8-8,8-20.9,0-28.9C428.4,5.7,423.2,3.7,418,3.7L418,3.7z"/>
		<path fill="#FFFFFF" d="M519.8,16.1c2.1,0,4.1,0.8,5.6,2.3c3.1,3.1,3.1,8.2,0,11.3c-1.5,1.5-3.5,2.3-5.6,2.3
			c-0.9,0-1.8-0.1-2.6-0.4l-3.7-1.3l-1.3-3.7c-1-2.9-0.2-6,1.9-8.2C515.6,17,517.6,16.1,519.8,16.1 M467.2,68.7
			c0.9,0,1.8,0.1,2.6,0.4l3.7,1.3l1.3,3.7c1,2.9,0.2,6-1.9,8.2c-1.5,1.5-3.5,2.3-5.6,2.3c-2.1,0-4.1-0.8-5.6-2.3
			c-1.5-1.5-2.3-3.5-2.3-5.6c0-2.1,0.8-4.1,2.3-5.6C463.1,69.6,465.1,68.7,467.2,68.7 M519.8,3.7c-5.2,0-10.4,2-14.4,6
			c-5.7,5.7-7.3,13.8-4.9,21l-26.7,26.7c-2.1-0.7-4.3-1.1-6.6-1.1c-5.2,0-10.4,2-14.4,6c-8,8-8,20.9,0,28.9c4,4,9.2,6,14.4,6
			s10.4-2,14.4-6c5.7-5.7,7.3-13.8,4.9-21l26.7-26.7c2.1,0.7,4.3,1.1,6.6,1.1c5.2,0,10.4-2,14.4-6c8-8,8-20.9,0-28.9
			C530.2,5.7,525,3.7,519.8,3.7L519.8,3.7z"/>
		<path fill="#FFFFFF" d="M284,219.7c2.1,0,4.1,0.8,5.6,2.3c2.1,2.1,2.9,5.3,1.9,8.2l-1.3,3.7l-3.7,1.3c-0.8,0.3-1.7,0.4-2.6,0.4
			c-2.1,0-4.1-0.8-5.6-2.3c-3.1-3.1-3.1-8.2,0-11.3C279.9,220.6,281.9,219.7,284,219.7 M284,313c0.9,0,1.8,0.1,2.6,0.4l3.7,1.3
			l1.3,3.7c1,2.9,0.2,6-1.9,8.2c-1.5,1.5-3.5,2.3-5.6,2.3c-2.1,0-4.1-0.8-5.6-2.3c-3.1-3.1-3.1-8.2,0-11.3
			C279.9,313.9,281.8,313,284,313 M284,207.3c-5.2,0-10.4,2-14.4,6c-8,8-8,20.9,0,28.9c4,4,9.2,6,14.4,6c2.2,0,4.4-0.4,6.6-1.1
			l10.7,10.7v33.2l-10.7,10.7c-2.1-0.7-4.3-1.1-6.6-1.1c-5.2,0-10.4,2-14.4,6c-8,8-8,20.9,0,28.9c4,4,9.2,6,14.4,6
			c5.2,0,10.4-2,14.4-6c5.7-5.7,7.3-13.8,4.9-21l16-16v-48.2l-16-16c2.4-7.1,0.8-15.3-4.9-21C294.4,209.3,289.2,207.3,284,207.3
			L284,207.3z"/>
		<path fill="#FFFFFF" d="M764.1,341.9c2.1,0,4.1,0.8,5.6,2.3c3.1,3.1,3.1,8.2,0,11.3c-1.5,1.5-3.5,2.3-5.6,2.3
			c-0.9,0-1.8-0.1-2.6-0.4l-3.7-1.3l-1.3-3.7c-1-2.9-0.2-6,1.9-8.2C759.9,342.7,762,341.9,764.1,341.9 M473.2,449.6
			c3,0,5.8,1.7,7.1,4.4l1.7,3.5l-1.7,3.5c-1.4,2.7-4.1,4.4-7.1,4.4c-4.4,0-8-3.6-8-8C465.2,453.2,468.8,449.6,473.2,449.6
			 M764.1,329.4c-5.2,0-10.4,2-14.4,6c-5.7,5.7-7.3,13.8-4.9,21l-92.1,92.1H491.5c-3.3-6.7-10.3-11.4-18.3-11.4
			c-11.3,0-20.4,9.1-20.4,20.4c0,11.3,9.1,20.4,20.4,20.4c8,0,14.9-4.6,18.3-11.4h168.6l97.4-97.4c2.1,0.7,4.3,1.1,6.6,1.1
			c5.2,0,10.4-2,14.4-6c8-8,8-20.9,0-28.9C774.5,331.4,769.3,329.4,764.1,329.4L764.1,329.4z"/>
		<path fill="#FFFFFF" d="M80.4,362.2c2.1,0,4.1,0.8,5.6,2.3c2.1,2.1,2.9,5.3,1.9,8.2l-1.3,3.7l-3.7,1.3c-0.8,0.3-1.7,0.4-2.6,0.4
			c-2.1,0-4.1-0.8-5.6-2.3c-3.1-3.1-3.1-8.2,0-11.3C76.3,363.1,78.3,362.2,80.4,362.2 M106.7,448.6l3.5,1.7c2.7,1.4,4.4,4.1,4.4,7.1
			c0,4.4-3.6,8-8,8c-4.4,0-8-3.6-8-8c0-3,1.7-5.8,4.4-7.1L106.7,448.6 M80.4,349.8c-5.2,0-10.4,2-14.4,6c-8,8-8,20.9,0,28.9
			c4,4,9.2,6,14.4,6c2.2,0,4.4-0.4,6.6-1.1l10.7,10.7v39c-6.7,3.3-11.4,10.3-11.4,18.3c0,11.3,9.1,20.4,20.4,20.4
			s20.4-9.1,20.4-20.4c0-8-4.6-14.9-11.4-18.3v-46.5l-16-16c2.4-7.1,0.8-15.3-4.9-21C90.9,351.8,85.6,349.8,80.4,349.8L80.4,349.8z"
			/>
	</g>
	<g>
		<g>
			<polygon fill="#FFFFFF" points="298.2,656 324.2,611 307,601.1 286.5,636.6 285.7,637.1 265.3,601.7 248,611.6 274,656.6 
				124.1,916.3 225.5,916.3 286.3,810.9 346.8,915.7 448.2,915.7 			"/>
		</g>
	</g>
</g>
</svg>
